# xmcd
#
# Track frame offsets:
#	150
#	18327
#	35788
#	55316
#	72379
#	87298
#	103523
#	117977
#	136160
#	151829
#	170747
#	188533
#	204705
#	221530
#
# Disc length: 3140 seconds
#
# Revision: 0
# Processed by: cddbd v1.4PL0 Copyright (c) Steve Scherf et al.
# Submitted via: dBpowerAMP V4.0
#
DISCID=c40c420e
DTITLE=Earn - The Best of Earn
DYEAR=1900
DGENRE=
TTITLE0=Bok dai mai wa yung ruk
TTITLE1=Ruk chun nun pier ter
TTITLE2=Keb aow wai
TTITLE3=Kon tee ruk ter
TTITLE4=A..Ah aiy
TTITLE5=Jai kong ter
TTITLE6=Pao ngai ror
TTITLE7=Kie mai
TTITLE8=Jee yark tai
TTITLE9=Kao mai care
TTITLE10=Chun koy
TTITLE11=Sa hus sa wad
TTITLE12=Leaw chun lah
TTITLE13=Kwun aok hoo
EXTD=Earn, album - Lovely, thai music
EXTT0=
EXTT1=
EXTT2=
EXTT3=
EXTT4=
EXTT5=
EXTT6=
EXTT7=
EXTT8=
EXTT9=
EXTT10=
EXTT11=
EXTT12=
EXTT13=
PLAYORDER=
